<svg width="17" height="21" viewBox="0 0 17 21" fill="none" xmlns="http://www.w3.org/2000/svg">
<path d="M10.1667 1H2.83333C2.3471 1 1.88079 1.19315 1.53697 1.53697C1.19315 1.88079 1 2.3471 1 2.83333V17.5C1 17.9862 1.19315 18.4525 1.53697 18.7964C1.88079 19.1402 2.3471 19.3333 2.83333 19.3333H13.8333C14.3196 19.3333 14.7859 19.1402 15.1297 18.7964C15.4735 18.4525 15.6667 17.9862 15.6667 17.5V6.5M10.1667 1L15.6667 6.5M10.1667 1L10.1667 6.5H15.6667M12 11.0833H4.66667M12 14.75H4.66667M6.5 7.41667H4.66667" stroke="#1E1E1E" stroke-width="2" stroke-linecap="round" stroke-linejoin="round"/>
</svg>
