<svg width="22" height="22" viewBox="0 0 22 22" fill="none" xmlns="http://www.w3.org/2000/svg">
<path d="M10.9997 6.41667C10.9997 5.44421 10.6134 4.51158 9.92573 3.82394C9.2381 3.13631 8.30547 2.75 7.33301 2.75H1.83301V16.5H8.24967C8.97902 16.5 9.67849 16.7897 10.1942 17.3055C10.7099 17.8212 10.9997 18.5207 10.9997 19.25M10.9997 6.41667V19.25M10.9997 6.41667C10.9997 5.44421 11.386 4.51158 12.0736 3.82394C12.7612 3.13631 13.6939 2.75 14.6663 2.75H20.1663V16.5H13.7497C13.0203 16.5 12.3209 16.7897 11.8051 17.3055C11.2894 17.8212 10.9997 18.5207 10.9997 19.25" stroke="#E94E1B" stroke-width="2" stroke-linecap="round" stroke-linejoin="round"/>
</svg>
