<svg width="56" height="56" viewBox="0 0 56 56" fill="none" xmlns="http://www.w3.org/2000/svg">
<path d="M27.9994 51.3346C40.886 51.3346 51.3327 40.888 51.3327 28.0013C51.3327 15.1147 40.886 4.66797 27.9994 4.66797C15.1127 4.66797 4.66602 15.1147 4.66602 28.0013C4.66602 40.888 15.1127 51.3346 27.9994 51.3346Z" stroke="#58694C" stroke-width="4" stroke-linecap="round" stroke-linejoin="round"/>
<path d="M27.9994 42.0013C35.7313 42.0013 41.9994 35.7333 41.9994 28.0013C41.9994 20.2693 35.7313 14.0013 27.9994 14.0013C20.2674 14.0013 13.9993 20.2693 13.9993 28.0013C13.9993 35.7333 20.2674 42.0013 27.9994 42.0013Z" stroke="#58694C" stroke-width="4" stroke-linecap="round" stroke-linejoin="round"/>
<path d="M27.9994 32.668C30.5767 32.668 32.666 30.5786 32.666 28.0013C32.666 25.424 30.5767 23.3346 27.9994 23.3346C25.422 23.3346 23.3327 25.424 23.3327 28.0013C23.3327 30.5786 25.422 32.668 27.9994 32.668Z" stroke="#58694C" stroke-width="4" stroke-linecap="round" stroke-linejoin="round"/>
</svg>
